<?xml version="1.0" encoding="utf-8"?>
<!-- Generator: Adobe Illustrator 24.1.2, SVG Export Plug-In . SVG Version: 6.00 Build 0)  -->
<svg version="1.1" id="Слой_1" xmlns="http://www.w3.org/2000/svg" xmlns:xlink="http://www.w3.org/1999/xlink" x="0px" y="0px"
	 viewBox="0 0 17 15" style="enable-background:new 0 0 17 15;" xml:space="preserve">
<style type="text/css">
	.st0{fill:#FFFFFF;}
</style>
<g id="XMLID_1_">
	<g>
		<path class="st0" d="M7.77,10.64l-0.65,2.58l1.84-1.66L7.77,10.64z M4.87,8.53l1.43,3.86L6.96,9.6c0-0.11,0.03-0.14,0.1-0.21
			l3.01-3.24L9.91,5.93L4.87,8.53z M0.85,5.91L15.23,0.4c0.24-0.08,0.48-0.13,0.63-0.13c0.38,0,0.68,0.12,0.85,0.36
			c0.24,0.3,0.32,0.66,0.25,1.2l-2.33,11.71c-0.13,0.7-0.63,1.19-1.23,1.19c-0.31,0-0.63-0.13-0.94-0.38l-2.7-2.21l-1.87,1.73
			c-0.28,0.29-0.64,0.45-1,0.45c-0.57,0-1.06-0.38-1.31-1.02L3.91,8.62L0.9,7.78c-0.77-0.24-0.93-0.62-0.93-0.9
			C-0.03,6.65,0.09,6.23,0.85,5.91z M1.25,6.76L4.3,7.65l8.54-4.37c0.05-0.03,0.09-0.05,0.22-0.05c0.13,0,0.29,0.03,0.34,0.18
			c0.2,0.27,0.12,0.54-0.03,0.68L8.19,9.65l4.85,3.89c0.07,0.07,0.24,0.16,0.36,0.16c0.17,0,0.27-0.21,0.27-0.41L16,1.6
			c0.08-0.25-0.01-0.37-0.04-0.4l-0.1-0.1l-0.09,0.1c0,0-0.04,0.03-0.11,0.03L1.25,6.76z"/>
	</g>
	<g>
	</g>
</g>
</svg>
